<svg width="24" height="24" viewBox="0 0 24 24" fill="white" xmlns="http://www.w3.org/2000/svg">
<path d="M12.6167 21.4529L12.6165 21.4529C10.7262 21.4529 8.96136 20.4254 7.65203 18.6912C6.34312 16.9575 5.51439 14.5435 5.51439 11.8654C5.51439 7.84607 7.34665 4.51455 9.82139 3.05971C9.48863 4.01245 9.3023 5.03152 9.3023 6.05417C9.3023 8.52538 10.2318 10.7725 11.9706 12.5114C14.4072 14.948 14.727 18.6585 13.0187 21.4442C12.8875 21.4527 12.7592 21.4529 12.6167 21.4529Z" stroke="#141921"/>
<path d="M11.6442 2.83931V2.83933L11.6485 2.83929C13.5545 2.82273 15.3173 3.84873 16.6215 5.58623C17.9258 7.32388 18.7463 9.74719 18.7463 12.4268C18.7463 16.3239 16.7296 19.373 14.222 20.8118C14.306 20.6501 14.3861 20.489 14.4584 20.3306C14.7424 19.7078 14.9584 19.0282 14.9584 18.2381C14.9584 15.7669 14.0289 13.5197 12.2901 11.7809C9.80024 9.29101 9.0301 5.69022 10.6881 2.96212C10.806 2.94435 10.9431 2.92373 11.0997 2.90165C11.3689 2.86369 11.5779 2.83931 11.6442 2.83931Z" stroke="#141921"/>
</svg>
