<svg width="88" height="88" viewBox="0 0 88 88" fill="none" xmlns="http://www.w3.org/2000/svg">
<path d="M44 0.25C55.6032 0.25 66.7312 4.85936 74.9359 13.0641C83.1406 21.2688 87.75 32.3968 87.75 44C87.75 55.6032 83.1406 66.7312 74.9359 74.9359C66.7312 83.1406 55.6032 87.75 44 87.75C32.3968 87.75 21.2688 83.1406 13.0641 74.9359C4.85936 66.7312 0.25 55.6032 0.25 44C0.25 32.3968 4.85936 21.2688 13.0641 13.0641C21.2688 4.85936 32.3968 0.25 44 0.25ZM38.55 52.6312L28.8312 42.9062C28.4828 42.5578 28.0692 42.2815 27.614 42.0929C27.1588 41.9043 26.6709 41.8073 26.1781 41.8073C25.6854 41.8073 25.1975 41.9043 24.7423 42.0929C24.287 42.2815 23.8734 42.5578 23.525 42.9062C22.8213 43.6099 22.426 44.5643 22.426 45.5594C22.426 46.5545 22.8213 47.5088 23.525 48.2125L35.9 60.5875C36.2474 60.9377 36.6607 61.2156 37.1161 61.4052C37.5715 61.5949 38.0598 61.6925 38.5531 61.6925C39.0464 61.6925 39.5348 61.5949 39.9902 61.4052C40.4455 61.2156 40.8588 60.9377 41.2062 60.5875L66.8313 34.9562C67.1843 34.6093 67.4652 34.1958 67.6577 33.7398C67.8502 33.2837 67.9505 32.7941 67.9528 32.299C67.9551 31.804 67.8593 31.3135 67.6711 30.8556C67.4829 30.3978 67.2058 29.9818 66.856 29.6315C66.5062 29.2813 66.0905 29.0038 65.6329 28.815C65.1753 28.6262 64.6848 28.5299 64.1898 28.5316C63.6948 28.5333 63.205 28.6331 62.7487 28.825C62.2924 29.017 61.8786 29.2973 61.5312 29.65L38.55 52.6312Z" fill="#67CE67"/>
</svg>
