<svg width="24" height="24" viewBox="0 0 24 24" fill="white" xmlns="http://www.w3.org/2000/svg">
<g clip-path="url(#clip0_45243_2592)">
<path d="M16.8368 18.432C14.7843 20.8753 11.9862 21.6949 8.84183 21.6246C7.34408 21.5911 5.89347 21.2923 4.53258 20.6363C3.21248 20.0024 2.12294 18.9727 1.41566 17.6905C0.200539 15.5501 -0.23149 13.2691 0.217996 10.8391C0.298763 10.4026 0.425382 10.0428 0.883096 9.75167C2.2464 8.8846 3.76011 8.49392 5.30773 8.25752C7.9881 7.84807 10.6942 7.72185 13.395 8.02194C14.7495 8.18921 16.094 8.42913 17.4228 8.74063C18.4774 8.9746 18.5214 9.08678 18.6954 10.0935C19.0817 9.94793 19.4579 9.7591 19.8558 9.66489C21.0845 9.37392 22.324 9.88954 23.0784 10.9845C24.3534 12.8354 24.4428 16.1876 21.6455 18.1006C20.5808 18.8287 19.4235 19.2777 18.1096 18.9658C17.6874 18.8658 17.2979 18.63 16.8368 18.432ZM1.14436 11.5838C1.04088 13.6772 1.61248 15.7485 2.77495 17.4925C3.36127 18.4183 4.22003 19.1396 5.23309 19.5574C8.12877 20.727 11.0244 20.7589 13.8692 19.3835C14.954 18.8739 15.8382 18.0179 16.3825 16.9503C17.3177 15.1264 17.5206 13.1704 17.4517 11.1359C17.0325 11.2873 16.6545 11.4871 16.2538 11.5574C14.9896 11.7781 13.7218 12.069 12.4471 12.1183C8.67828 12.2627 4.90531 12.303 1.14436 11.5838ZM1.84739 10.4629L1.87166 10.6259C2.2772 10.6944 2.68085 10.8079 3.08839 10.824C5.87271 10.9344 8.65681 11.0688 11.4427 11.1031C12.9241 11.1213 14.4134 10.9906 15.8495 10.5563C16.1352 10.4685 16.4093 10.3462 16.6653 10.192C16.7216 10.1497 16.767 10.0945 16.7975 10.0311C16.8283 9.96768 16.8432 9.89784 16.8414 9.82741C16.8168 9.76248 16.7777 9.70401 16.7272 9.65642C16.6766 9.60883 16.6158 9.57341 16.5496 9.55282C16.118 9.43021 15.6809 9.29345 15.2377 9.25443C13.8925 9.13574 12.5449 9.0304 11.1959 8.97421C8.54495 8.86384 5.92618 9.08849 3.38006 9.88462C2.85944 10.0473 2.35767 10.2686 1.84739 10.4629ZM18.6373 11.6079C18.8388 11.5491 18.9453 11.5135 19.054 11.4869C20.1534 11.2184 21.2313 11.729 21.6162 12.7175C21.8585 13.3467 21.897 14.0361 21.7266 14.6884C21.2736 16.5109 19.4725 17.588 17.5665 17.1873L17.3977 17.5793C18.0023 17.6576 18.5703 17.8439 19.1081 17.7793C20.6064 17.5987 21.6766 16.725 22.2338 15.3522C22.774 14.0222 22.6207 12.6819 21.7859 11.4916C21.061 10.4586 19.3339 10.4925 18.6373 11.6079ZM18.0836 16.2125C19.7835 16.4365 21.2146 14.6838 20.6429 13.026C20.4075 12.3429 19.3324 12.0313 18.7969 12.5021C18.7094 12.5973 18.6541 12.7176 18.6387 12.8459C18.4496 13.9569 18.2706 15.0696 18.0836 16.2125Z" stroke-width="0.407643"/>
<path d="M10.9388 5.9068C10.9177 6.5088 10.7735 6.97504 10.3913 7.30462C10.3021 7.36899 10.2011 7.41513 10.0941 7.4404C9.98701 7.46568 9.87603 7.46958 9.76746 7.45191C9.47731 7.39782 9.45864 7.09183 9.5374 6.87872C9.81392 6.12984 9.66441 5.43183 9.46356 4.68886C9.2662 3.95896 9.51161 3.23977 9.91576 2.59605C10.0663 2.35685 10.2802 2.22753 10.5478 2.36237C10.8045 2.4914 10.8087 2.74614 10.7039 2.9732C10.3593 3.72217 10.3893 4.44536 10.756 5.1825C10.8787 5.42822 10.8959 5.7262 10.9388 5.9068Z" stroke-width="0.407643"/>
<path d="M4.70064 7.48388C4.70927 7.41313 4.73004 7.3444 4.76205 7.2807C5.1119 6.7649 4.96582 6.27738 4.72081 5.77121C4.22306 4.7426 4.37267 3.80109 5.1411 2.95981C5.2303 2.86209 5.32622 2.72805 5.43908 2.70357C5.63253 2.66183 5.89059 2.61858 6.03326 2.71149C6.24997 2.85196 6.1384 3.076 6.00656 3.27787C5.81892 3.57149 5.65065 3.87704 5.50279 4.19259C5.30665 4.60083 5.4148 4.99685 5.56299 5.40179C5.73208 5.81571 5.85373 6.24745 5.92559 6.68874C5.99232 7.23244 5.67738 7.71935 5.27134 7.87809C4.92559 8.01302 4.686 7.86325 4.70064 7.48388Z" stroke-width="0.407643"/>
<path d="M12.4247 5.58111C12.3265 5.21349 12.2496 4.85571 12.135 4.51048C11.9033 3.81247 12.1007 3.19612 12.4661 2.60918C12.6212 2.35985 12.8532 2.20304 13.1412 2.34942C13.4443 2.50353 13.3402 2.77423 13.2315 3.00509C13.1154 3.23646 13.0587 3.49305 13.0663 3.7518C13.0739 4.01054 13.1457 4.26335 13.2752 4.4875C13.6782 5.25865 13.6994 6.04113 13.0892 6.72228C12.8915 6.94301 12.5853 7.09493 12.2998 7.19926C12.074 7.28184 11.9069 7.15913 12.0046 6.86706C12.1466 6.44356 12.2823 6.01804 12.4247 5.58111Z" stroke-width="0.407643"/>
<path d="M8.20129 2.73559C8.15841 2.87686 8.10848 3.01589 8.05169 3.15217C7.7819 3.71041 7.8447 4.24248 8.13847 4.77373C8.42462 5.29125 8.63422 5.8497 8.54311 6.44346C8.48013 6.77999 8.34093 7.09764 8.13617 7.37203C8.04787 7.49464 7.73122 7.54841 7.57009 7.49001C7.45793 7.44988 7.35057 7.14619 7.38487 6.99237C7.55705 6.22162 7.40936 5.52933 7.07717 4.821C6.70393 4.02505 6.88532 3.25139 7.45311 2.59312C7.55665 2.47272 7.79313 2.42366 7.9665 2.42708C8.04877 2.42868 8.12704 2.63175 8.20129 2.73559Z" stroke-width="0.407643"/>
</g>
<defs>
<clipPath id="clip0_45243_2592">
<rect width="24" height="24" fill="white"/>
</clipPath>
</defs>
</svg>
