<svg width="25" height="25" viewBox="0 0 25 25" fill="none" xmlns="http://www.w3.org/2000/svg">
<rect width="25" height="25" rx="12.5" fill="#D17842"/>
<g clip-path="url(#clip0_45241_1713)">
<path d="M7.85945 7.85945C8.03526 7.68369 8.27367 7.58496 8.52226 7.58496C8.77085 7.58496 9.00927 7.68369 9.18507 7.85945L12.5001 11.1744L15.8151 7.85945C15.9919 7.68867 16.2287 7.59418 16.4745 7.59632C16.7203 7.59845 16.9555 7.69705 17.1293 7.87087C17.3031 8.04469 17.4017 8.27983 17.4038 8.52563C17.406 8.77144 17.3115 9.00826 17.1407 9.18507L13.8257 12.5001L17.1407 15.8151C17.3115 15.9919 17.406 16.2287 17.4038 16.4745C17.4017 16.7203 17.3031 16.9555 17.1293 17.1293C16.9555 17.3031 16.7203 17.4017 16.4745 17.4038C16.2287 17.406 15.9919 17.3115 15.8151 17.1407L12.5001 13.8257L9.18507 17.1407C9.00826 17.3115 8.77144 17.406 8.52563 17.4038C8.27983 17.4017 8.04469 17.3031 7.87087 17.1293C7.69705 16.9555 7.59845 16.7203 7.59632 16.4745C7.59418 16.2287 7.68867 15.9919 7.85945 15.8151L11.1744 12.5001L7.85945 9.18507C7.68369 9.00927 7.58496 8.77085 7.58496 8.52226C7.58496 8.27367 7.68369 8.03526 7.85945 7.85945Z" fill="white" stroke="white" stroke-width="0.00064"/>
</g>
<defs>
<clipPath id="clip0_45241_1713">
<rect width="15" height="15" fill="white" transform="translate(5 5)"/>
</clipPath>
</defs>
</svg>
