<svg width="18" height="18" viewBox="0 0 18 18" fill="none" xmlns="http://www.w3.org/2000/svg">
<path d="M14.0618 7.28218V6.75373C14.0618 3.85217 11.7956 1.5 9 1.5C6.20442 1.5 3.93815 3.85217 3.93815 6.75373V7.28218C3.93815 7.9164 3.75729 8.53635 3.41835 9.06405L2.58777 10.3571C1.82912 11.5382 2.40829 13.1437 3.72777 13.5172C7.17956 14.4943 10.8205 14.4943 14.2722 13.5172C15.5918 13.1437 16.1709 11.5382 15.4122 10.3571L14.5816 9.06405C14.2427 8.53635 14.0618 7.9164 14.0618 7.28218Z" stroke="white" stroke-width="1.5"/>
<path d="M5.625 14.25C6.11627 15.5608 7.44185 16.5 9 16.5C10.5581 16.5 11.8838 15.5608 12.375 14.25" stroke="white" stroke-width="1.5" stroke-linecap="round"/>
</svg>
