<svg width="50" height="17" viewBox="0 0 50 17" fill="none" xmlns="http://www.w3.org/2000/svg">
<path d="M25.8588 5.16185C25.8303 7.41097 27.8632 8.66615 29.3946 9.41235C30.9681 10.1781 31.4966 10.669 31.4906 11.3537C31.4786 12.4017 30.2354 12.8641 29.0718 12.8821C27.0419 12.9136 25.8618 12.3341 24.9234 11.8957L24.1922 15.3174C25.1336 15.7513 26.8768 16.1297 28.6845 16.1462C32.9275 16.1462 35.7036 14.0517 35.7186 10.8042C35.7351 6.68278 30.0177 6.45457 30.0568 4.61234C30.0703 4.05381 30.6033 3.45775 31.7714 3.30611C32.3494 3.22954 33.9454 3.17098 35.7546 4.00427L36.4648 0.693654C35.4919 0.339321 34.2412 1.90735e-06 32.6842 1.90735e-06C28.6905 1.90735e-06 25.8813 2.123 25.8588 5.16185ZM43.2887 0.28527C42.514 0.28527 41.8609 0.737195 41.5696 1.43085L35.5084 15.903H39.7484L40.5922 13.5713H45.7735L46.263 15.903H50L46.7389 0.28527H43.2887ZM43.8818 4.50424L45.1054 10.3687H41.7542L43.8818 4.50424ZM20.718 0.28527L17.3758 15.903H21.4161L24.7568 0.28527H20.718ZM14.7409 0.28527L10.5354 10.9153L8.8343 1.87677C8.63462 0.867818 7.84638 0.28527 6.97105 0.28527H0.0960903L0 0.738696C1.41133 1.04498 3.01483 1.53895 3.98625 2.06745C4.58081 2.39025 4.75047 2.67251 4.94565 3.43974L8.16768 15.903H12.4377L18.9838 0.28527H14.7409Z" fill="url(#paint0_linear_100_938)"/>
<defs>
<linearGradient id="paint0_linear_100_938" x1="2298.71" y1="48.5382" x2="2345.44" y2="-1609.7" gradientUnits="userSpaceOnUse">
<stop stop-color="white"/>
<stop offset="1" stop-color="#254AA5"/>
</linearGradient>
</defs>
</svg>
